<svg width="32" height="32" viewBox="0 0 32 32" xmlns="http://www.w3.org/2000/svg">
  <defs>
    <linearGradient id="bg" x1="0%" y1="0%" x2="100%" y2="100%">
      <stop offset="0%" style="stop-color:#667eea;stop-opacity:1" />
      <stop offset="100%" style="stop-color:#764ba2;stop-opacity:1" />
    </linearGradient>
    <linearGradient id="yin" x1="0%" y1="0%" x2="100%" y2="100%">
      <stop offset="0%" style="stop-color:#ffffff;stop-opacity:1" />
      <stop offset="100%" style="stop-color:#f8f9fa;stop-opacity:1" />
    </linearGradient>
    <linearGradient id="yang" x1="0%" y1="0%" x2="100%" y2="100%">
      <stop offset="0%" style="stop-color:#2d3748;stop-opacity:1" />
      <stop offset="100%" style="stop-color:#1a202c;stop-opacity:1" />
    </linearGradient>
  </defs>
  
  <!-- 背景圆形 -->
  <circle cx="16" cy="16" r="15" fill="url(#bg)" stroke="#5a67d8" stroke-width="0.5"/>
  
  <!-- 太极图 -->
  <g transform="translate(16,16)">
    <!-- 大圆 -->
    <circle cx="0" cy="0" r="13" fill="url(#yin)" stroke="url(#yang)" stroke-width="0.3"/>
    
    <!-- 阳鱼 -->
    <path d="M 0,-13 A 13,13 0 0,1 0,13 A 6.5,6.5 0 0,0 0,0 Z" fill="url(#yang)"/>
    
    <!-- 阴鱼 -->
    <path d="M 0,13 A 13,13 0 0,1 0,-13 A 6.5,6.5 0 0,0 0,0 Z" fill="url(#yin)"/>
    
    <!-- 阳鱼眼 -->
    <circle cx="0" cy="-6.5" r="1.8" fill="url(#yin)"/>
    
    <!-- 阴鱼眼 -->
    <circle cx="0" cy="6.5" r="1.8" fill="url(#yang)"/>
  </g>
  
  <!-- 八卦符号装饰 (简化版) -->
  <g transform="translate(16,16)" opacity="0.4">
    <!-- 乾卦 (天) - 三条实线 -->
    <g transform="translate(-8,-8) scale(0.4)">
      <rect x="0" y="0" width="6" height="0.8" fill="url(#yang)" rx="0.4"/>
      <rect x="0" y="2" width="6" height="0.8" fill="url(#yang)" rx="0.4"/>
      <rect x="0" y="4" width="6" height="0.8" fill="url(#yang)" rx="0.4"/>
    </g>
    
    <!-- 坤卦 (地) - 三条虚线 -->
    <g transform="translate(8,8) scale(0.4)">
      <rect x="0" y="0" width="1.5" height="0.8" fill="url(#yang)" rx="0.4"/>
      <rect x="2.5" y="0" width="1.5" height="0.8" fill="url(#yang)" rx="0.4"/>
      <rect x="5" y="0" width="1.5" height="0.8" fill="url(#yang)" rx="0.4"/>
      <rect x="0" y="2" width="1.5" height="0.8" fill="url(#yang)" rx="0.4"/>
      <rect x="2.5" y="2" width="1.5" height="0.8" fill="url(#yang)" rx="0.4"/>
      <rect x="5" y="2" width="1.5" height="0.8" fill="url(#yang)" rx="0.4"/>
      <rect x="0" y="4" width="1.5" height="0.8" fill="url(#yang)" rx="0.4"/>
      <rect x="2.5" y="4" width="1.5" height="0.8" fill="url(#yang)" rx="0.4"/>
      <rect x="5" y="4" width="1.5" height="0.8" fill="url(#yang)" rx="0.4"/>
    </g>
  </g>
</svg>
